<svg xmlns="http://www.w3.org/2000/svg" viewBox="0 0 118.67 44.99"><defs><style>.a,.b{fill:none;stroke:#000;stroke-miterlimit:10;stroke-width:4px;}.a{stroke-linecap:round;}</style></defs><path class="a" d="M59.31,39a16.1,16.1,0,0,1-10.85,4,13.89,13.89,0,0,1-9.62-3.62c9.45-8.78,9.62-30.62,9.62-32.21C48.48,8.75,48.86,30,59.31,39Z"/><path class="a" d="M116.67,2c0,23.77-8.89,41-27.73,41a12.91,12.91,0,0,1-9.11-3.66C90.9,29.29,88.94,2,88.94,2Z"/><path class="b" d="M29.74,2H2c0,23.77,8.9,41,27.74,41a12.89,12.89,0,0,0,9.1-3.66C27.77,29.29,29.74,2,29.74,2Z"/><path class="a" d="M79.83,39.33A13.81,13.81,0,0,1,70.18,43a16.17,16.17,0,0,1-10.87-4C48.86,30,48.48,8.75,48.46,7.16V7.08H70.18C70.18,7.58,70.23,30.29,79.83,39.33Z"/></svg>