<?xml version="1.0" encoding="utf-8"?>
<!-- Generator: Adobe Illustrator 24.0.3, SVG Export Plug-In . SVG Version: 6.00 Build 0)  -->
<svg version="1.1" id="Layer_1" xmlns="http://www.w3.org/2000/svg" xmlns:xlink="http://www.w3.org/1999/xlink" x="0px" y="0px"
	 viewBox="0 0 600 232.2" style="enable-background:new 0 0 600 232.2;" xml:space="preserve">
<style type="text/css">
	.st0{fill:#666666;}
</style>
<title>fandw-reduced</title>
<g>
	<path class="st0" d="M89,36.6c-5.4-0.1-10.8,1.6-15.1,4.8c-4.3,3.2-6.4,8.7-6.4,16.4v16.9h34.6v35.6H67.4v118H25.6v-118H0V74.7
		h25.6V57.2c0-17.3,5-31.1,15.1-41.5C50.8,5.3,64.4,0.1,81.4,0.1c7-0.4,14,0.7,20.6,3.1v35C97.8,37,93.4,36.5,89,36.6z"/>
	<path class="st0" d="M283.8,228.1l-22.8-24c-18.3,18.7-38.1,28.1-59.3,28.1c-20.6,0-36.9-5.9-49-17.8
		c-20.2-19.5-23.9-50.5-8.9-74.2c7.9-10.7,17.6-20.1,28.5-27.8l1.6-0.9l-3.4-3.7c-16.2-17.3-24.3-33.3-24.3-48
		c0-17.7,6.1-31.7,18.4-42.1c25.2-20.8,61.6-20.8,86.7,0c11.5,10.1,17.9,24.9,17.5,40.2c0,18.1-10.4,35-31.2,50.6l-8.4,6.2
		l33.4,35.3l55.9-58.3v51.8L287.6,176l49.9,52.4L283.8,228.1z M202.2,196c10.8,0,22.1-6.1,33.7-18.4l-37.8-39.9l-4.7,3.4
		c-11.9,8.8-17.8,18.5-17.8,29.3c0,6.7,2.7,13.1,7.5,17.8C188.2,193.3,195.1,196.2,202.2,196z M185.4,58.4c0,7.3,4.4,15.3,13.1,24
		l5.9,6.6l10.9-8.1c9.3-6.7,14-14.7,14-23.4c0.1-5.7-2.2-11.2-6.4-15.1c-4.3-4.1-10.1-6.3-16-6.1c-5.5,0-10.7,2-14.8,5.7
		C187.5,46.2,185.1,52.2,185.4,58.4z"/>
	<path class="st0" d="M453.6,74.6h43.8l32.9,98.8l28.4-98.9H600L552,228h-41.6l-35.9-104.8L439.3,228h-42.1l-49-153.5H392l28.4,98.6
		L453.6,74.6z"/>
</g>
</svg>
