<svg xmlns="http://www.w3.org/2000/svg" viewBox="0 0 1000 600"><defs><style>.a{fill:#111110;}</style></defs><title>fandw-std</title><path class="a" d="M250.14,270.69a6.57,6.57,0,0,0-4.08,1.3q-1.73,1.31-1.72,4.42V281h9.33v9.59h-9.33v31.79H233.07V290.54h-6.9V281h6.9v-4.71c0-4.66,1.36-8.38,4.08-11.19s6.37-4.2,11-4.2a14,14,0,0,1,5.55.84v9.42A12.68,12.68,0,0,0,250.14,270.69Z"/><path class="a" d="M263.05,285.91a22.47,22.47,0,0,1,31,0,23.11,23.11,0,0,1,0,31.46,22.47,22.47,0,0,1-31,0,23.11,23.11,0,0,1,0-31.46Zm8.08,24.39a10.43,10.43,0,0,0,14.88,0q3.08-3.1,3.07-8.66T286,293a10.43,10.43,0,0,0-14.88,0q-3.08,3.11-3.07,8.66T271.13,310.3Z"/><path class="a" d="M312.18,285.91a22.46,22.46,0,0,1,31,0,23.11,23.11,0,0,1,0,31.46,22.46,22.46,0,0,1-31,0,23.08,23.08,0,0,1,0-31.46Zm8.07,24.39a10.44,10.44,0,0,0,14.89,0c2-2.07,3.07-5,3.07-8.66s-1-6.59-3.07-8.66a10.44,10.44,0,0,0-14.89,0q-3.08,3.11-3.07,8.66T320.25,310.3Z"/><path class="a" d="M397.68,261.43v53.42c0,2.74.11,5.24.33,7.48H387.33a24.6,24.6,0,0,1-.42-4.79,10.34,10.34,0,0,1-4.5,4.2,15.15,15.15,0,0,1-7.11,1.6,18.85,18.85,0,0,1-14.51-6.18q-5.67-6.18-5.68-15.6a22.19,22.19,0,0,1,5.6-15.4A18.31,18.31,0,0,1,375,279.94q8.91,0,11.69,5.13V261.43Zm-31.29,40.13c0,3.64.95,6.52,2.86,8.62a9.52,9.52,0,0,0,7.4,3.15,9.39,9.39,0,0,0,7.32-3.19c1.9-2.13,2.86-5,2.86-8.67s-1-6.4-2.86-8.45a10.26,10.26,0,0,0-14.68,0C367.35,295.14,366.39,298,366.39,301.56Z"/><path class="a" d="M467.07,322.33l-6.14-6.47q-7.4,7.56-16,7.57-8.32,0-13.21-4.8a15.91,15.91,0,0,1-2.39-20,33.13,33.13,0,0,1,7.69-7.48l.42-.26-.92-1q-6.57-7-6.56-12.95a14.1,14.1,0,0,1,5-11.35,18.33,18.33,0,0,1,23.38,0A13.87,13.87,0,0,1,463,276.41q0,7.3-8.41,13.62l-2.27,1.68,9,9.51,15.06-15.73v14l-8.33,8.75,13.46,14.13Zm-21.95-8.66q4.36,0,9.08-5L444,297.94l-1.26.92q-4.8,3.54-4.79,7.91a6.72,6.72,0,0,0,2,4.8A6.79,6.79,0,0,0,445.12,313.67Zm-4.54-37.1c0,2,1.17,4.13,3.53,6.48l1.6,1.77,2.94-2.19q3.78-2.78,3.78-6.31a5.42,5.42,0,0,0-1.72-4.08,6,6,0,0,0-4.33-1.64,5.94,5.94,0,0,0-4,1.56A5.56,5.56,0,0,0,440.58,276.57Z"/><path class="a" d="M528.39,281h11.78l8.91,26.66L556.74,281h11.1l-13,41.38H543.7L534,294.07l-9.5,28.26H513.16L500,281h11.77l7.66,26.58Z"/><path class="a" d="M600.05,280.78v11.27a17.41,17.41,0,0,0-3.36-.34,10.93,10.93,0,0,0-7.74,2.74q-2.94,2.73-2.94,9v18.92H574.82V281h10.85v6.14q3-6.48,11.78-6.48C598.06,280.61,598.93,280.67,600.05,280.78Z"/><path class="a" d="M606.61,267.41a6.8,6.8,0,0,1,2-4.92,6.57,6.57,0,0,1,4.88-2.07,6.67,6.67,0,0,1,4.88,2,6.74,6.74,0,0,1,2,5,6.52,6.52,0,0,1-2,4.79,6.9,6.9,0,0,1-9.76,0A6.56,6.56,0,0,1,606.61,267.41Zm12.54,54.92H608V281h11.19Z"/><path class="a" d="M644.88,268.58V281h8.33v9.92h-8.33V308.2a4.9,4.9,0,0,0,1.18,3.7,5.31,5.31,0,0,0,3.7,1.1,13.47,13.47,0,0,0,3.45-.34v9.25a16.57,16.57,0,0,1-6.31,1q-6,0-9.59-3.41t-3.53-9.37V290.87H626.3V281h2.1a6.07,6.07,0,0,0,4.75-1.81,6.81,6.81,0,0,0,1.64-4.75v-5.81Z"/><path class="a" d="M661.37,267.41a6.76,6.76,0,0,1,2-4.92,6.55,6.55,0,0,1,4.88-2.07,6.65,6.65,0,0,1,4.87,2,6.74,6.74,0,0,1,2,5,6.52,6.52,0,0,1-2,4.79,6.89,6.89,0,0,1-9.75,0A6.52,6.52,0,0,1,661.37,267.41Zm12.53,54.92H662.72V281H673.9Z"/><path class="a" d="M697,298.53v23.8H685.85V281H696.7v5.13a11.55,11.55,0,0,1,5-4.63,15.65,15.65,0,0,1,6.9-1.6q7.32,0,11.15,4.59c2.55,3.06,3.82,7,3.82,11.82v26.07H712.43V298.19a9,9,0,0,0-1.9-6q-1.89-2.27-5.76-2.27a7,7,0,0,0-5.63,2.44A9,9,0,0,0,697,298.53Z"/><path class="a" d="M732,324.6l10.1-2.69a9.15,9.15,0,0,0,3.19,5.64,9.78,9.78,0,0,0,6.48,2.18q11,0,11-11.52v-3a10.82,10.82,0,0,1-4.37,3.79,15.51,15.51,0,0,1-7.15,1.51,18.31,18.31,0,0,1-13.76-5.72A19.91,19.91,0,0,1,732,300.38a20.28,20.28,0,0,1,5.47-14.3,18,18,0,0,1,13.8-5.89,15.82,15.82,0,0,1,7.57,1.64,9.55,9.55,0,0,1,4.2,4V281h10.77v36.92q0,9.35-5.38,15.52t-16.32,6.19a21.27,21.27,0,0,1-13.67-4.38A16.37,16.37,0,0,1,732,324.6Zm21.2-13.71a9.3,9.3,0,0,0,7-2.86,10.6,10.6,0,0,0,2.73-7.65,10.32,10.32,0,0,0-2.82-7.57,9.35,9.35,0,0,0-6.94-2.86,9.56,9.56,0,0,0-7.11,2.86,10.31,10.31,0,0,0-2.81,7.57,10.49,10.49,0,0,0,2.77,7.65A9.52,9.52,0,0,0,753.22,310.89Z"/></svg>